<?xml version="1.0" encoding="UTF-8"?>
<svg xmlns="http://www.w3.org/2000/svg" xmlns:xlink="http://www.w3.org/1999/xlink" width="375pt" height="374.999991pt" viewBox="0 0 375 374.999991" version="1.2">
<defs>
<clipPath id="clip1">
  <path d="M 112.5 112.5 L 262.5 112.5 L 262.5 262.5 L 112.5 262.5 Z M 112.5 112.5 "/>
</clipPath>
<clipPath id="clip2">
  <path d="M 196.226562 197.960938 L 250.226562 197.960938 L 250.226562 251.960938 L 196.226562 251.960938 Z M 196.226562 197.960938 "/>
</clipPath>
</defs>
<g id="surface1">
<g clip-path="url(#clip1)" clip-rule="nonzero">
<path style=" stroke:none;fill-rule:nonzero;fill:rgb(0%,0%,0%);fill-opacity:1;" d="M 262.320312 116.804688 C 262.320312 114.640625 260.484375 112.800781 258.316406 112.800781 C 253.617188 112.800781 248.917969 112.800781 244.21875 112.800781 C 232.9375 112.800781 221.652344 112.800781 210.371094 112.800781 C 196.773438 112.800781 183.179688 112.800781 169.585938 112.800781 C 157.78125 112.800781 145.980469 112.800781 134.175781 112.800781 C 128.449219 112.800781 122.679688 112.609375 116.953125 112.800781 C 116.871094 112.804688 116.792969 112.800781 116.710938 112.800781 C 114.542969 112.800781 112.707031 114.636719 112.707031 116.804688 C 112.707031 121.503906 112.707031 126.203125 112.707031 130.902344 C 112.707031 142.1875 112.707031 153.46875 112.707031 164.753906 C 112.707031 178.347656 112.707031 191.941406 112.707031 205.535156 C 112.707031 217.339844 112.707031 229.140625 112.707031 240.945312 C 112.707031 246.675781 112.515625 252.441406 112.707031 258.167969 C 112.707031 258.25 112.707031 258.332031 112.707031 258.414062 C 112.707031 260.578125 114.539062 262.417969 116.710938 262.417969 C 125.046875 262.417969 133.386719 262.417969 141.722656 262.417969 C 146.878906 262.417969 146.886719 254.40625 141.722656 254.40625 C 134.722656 254.40625 127.71875 254.40625 120.714844 254.40625 C 120.714844 251.042969 120.714844 247.679688 120.714844 244.3125 C 120.714844 233.03125 120.714844 221.75 120.714844 210.464844 C 120.714844 196.871094 120.714844 183.277344 120.714844 169.683594 C 120.714844 157.878906 120.714844 146.078125 120.714844 134.273438 C 120.714844 130.390625 120.714844 126.511719 120.714844 122.628906 C 120.714844 122.027344 120.726562 121.421875 120.742188 120.8125 C 124.097656 120.8125 127.453125 120.8125 130.804688 120.8125 C 142.089844 120.8125 153.371094 120.8125 164.65625 120.8125 C 178.25 120.8125 191.84375 120.8125 205.4375 120.8125 C 217.242188 120.8125 229.046875 120.8125 240.847656 120.8125 C 244.730469 120.8125 248.609375 120.8125 252.492188 120.8125 C 253.09375 120.8125 253.703125 120.824219 254.3125 120.835938 C 254.3125 124.191406 254.3125 127.546875 254.3125 130.902344 C 254.3125 142.1875 254.3125 153.46875 254.3125 164.753906 C 254.3125 178.347656 254.3125 191.941406 254.3125 205.535156 C 254.3125 217.339844 254.3125 229.140625 254.3125 240.945312 C 254.3125 244.828125 254.3125 248.707031 254.3125 252.585938 C 254.3125 253.191406 254.296875 253.796875 254.285156 254.40625 C 247.65625 254.40625 241.03125 254.40625 234.402344 254.40625 C 221.691406 254.40625 208.984375 254.40625 196.277344 254.40625 C 194.691406 254.40625 193.105469 254.40625 191.519531 254.40625 C 191.519531 251.914062 191.519531 249.425781 191.519531 246.933594 C 191.519531 237.746094 191.519531 228.558594 191.519531 219.371094 C 191.519531 208.316406 191.519531 197.257812 191.519531 186.199219 C 191.519531 176.589844 191.519531 166.980469 191.519531 157.371094 C 191.519531 153.976562 191.609375 150.5625 191.589844 147.160156 C 199.429688 147.160156 207.269531 147.160156 215.105469 147.160156 C 219.007812 147.160156 222.910156 147.160156 226.8125 147.160156 C 231.96875 147.160156 231.976562 139.148438 226.8125 139.148438 C 216.039062 139.148438 205.265625 139.148438 194.488281 139.148438 C 177.34375 139.148438 160.195312 139.148438 143.046875 139.148438 C 139.144531 139.148438 135.242188 139.148438 131.339844 139.148438 C 126.183594 139.148438 126.175781 147.160156 131.339844 147.160156 C 142.113281 147.160156 152.886719 147.160156 163.664062 147.160156 C 170.277344 147.160156 176.894531 147.160156 183.507812 147.160156 C 183.507812 149.652344 183.507812 152.140625 183.507812 154.632812 C 183.507812 163.820312 183.507812 173.007812 183.507812 182.195312 C 183.507812 193.253906 183.507812 204.308594 183.507812 215.367188 C 183.507812 224.976562 183.507812 234.585938 183.507812 244.195312 C 183.507812 248.855469 183.335938 253.554688 183.507812 258.214844 C 183.511719 258.28125 183.507812 258.347656 183.507812 258.414062 C 183.507812 259.640625 183.964844 260.570312 184.660156 261.214844 C 185.300781 261.9375 186.25 262.417969 187.511719 262.417969 C 195.484375 262.417969 203.457031 262.417969 211.425781 262.417969 C 224.132812 262.417969 236.84375 262.417969 249.550781 262.417969 C 252.472656 262.417969 255.394531 262.417969 258.316406 262.417969 C 260.480469 262.417969 262.320312 260.582031 262.320312 258.414062 C 262.320312 253.714844 262.320312 249.011719 262.320312 244.3125 C 262.320312 233.03125 262.320312 221.75 262.320312 210.464844 C 262.320312 196.871094 262.320312 183.277344 262.320312 169.683594 C 262.320312 157.878906 262.320312 146.078125 262.320312 134.273438 C 262.320312 128.542969 262.511719 122.777344 262.320312 117.046875 C 262.316406 116.96875 262.320312 116.886719 262.320312 116.804688 "/>
</g>
<path style=" stroke:none;fill-rule:nonzero;fill:rgb(0%,0%,0%);fill-opacity:1;" d="M 243.6875 143.15625 C 243.6875 140.914062 241.871094 139.097656 239.628906 139.097656 C 237.386719 139.097656 235.570312 140.914062 235.570312 143.15625 C 235.570312 145.394531 237.386719 147.214844 239.628906 147.214844 C 241.871094 147.214844 243.6875 145.394531 243.6875 143.15625 "/>
<g clip-path="url(#clip2)" clip-rule="nonzero">
<path style=" stroke:none;fill-rule:nonzero;fill:rgb(0%,0%,0%);fill-opacity:1;" d="M 223.285156 197.960938 C 208.355469 197.960938 196.226562 210.089844 196.226562 225.019531 C 196.226562 239.949219 208.355469 252.078125 223.285156 252.078125 C 238.214844 252.078125 250.34375 239.949219 250.34375 225.019531 C 250.34375 210.089844 238.214844 197.960938 223.285156 197.960938 Z M 223.285156 200.3125 C 236.945312 200.3125 247.992188 211.359375 247.992188 225.019531 C 247.992188 238.675781 236.945312 249.722656 223.285156 249.722656 C 209.625 249.722656 198.578125 238.675781 198.578125 225.019531 C 198.578125 211.359375 209.625 200.3125 223.285156 200.3125 Z M 212.847656 214.429688 L 212.847656 235.605469 L 215.3125 235.605469 L 215.3125 219.433594 L 215.492188 219.433594 L 222.167969 235.460938 L 224.398438 235.460938 L 231.078125 219.433594 L 231.253906 219.433594 L 231.253906 235.605469 L 233.71875 235.605469 L 233.71875 214.429688 L 230.652344 214.429688 L 223.402344 231.953125 L 223.167969 231.953125 L 215.917969 214.429688 Z M 212.847656 214.429688 "/>
</g>
</g>
</svg>
